PathFileType	3	(X/Y/Z)	D:\minhoCalibration\240510\subject4_KPNP\preferred\preferred07.trc
DataRate	CameraRate	NumFrames	NumMarkers	Units	OrigDataRate	OrigDataStartFrame	OrigNumFrames
200.0	200.0	25	10	mm	200.0	351	91	
Frame#	Time	Left_Ankle_Outer1			Left_Ankle_Inner1			Left_Knee_Outer1			Left_Knee_Inner1			Left_Wrist1			Right_Wrist1			Right_Knee_Inner1			Right_Knee_Outer1			Right_Ankle_Inner1			Right_Ankle_Outer1			
		X1	Y1	Z1	X2	Y2	Z2	X3	Y3	Z3	X4	Y4	Z4	X5	Y5	Z5	X6	Y6	Z6	X7	Y7	Z7	X8	Y8	Z8	X9	Y9	Z9	X10	Y10	Z10	
351	1.745	-391.05682	1205.7777	279.72763	-417.43994	1105.5269	270.78824	-239.54562	1080.2998	761.91223	-267.6348	996.26056	735.35535	-339.17987	1209.5764	1143.007	-368.65335	905.17377	1360.6569	-223.86638	559.54218	1075.3301	-215.03098	566.67188	1187.3073	-437.74872	132.22983	1154.0571	-413.67722	133.0081	1205.5317
352	1.75	-372.80148	1215.2803	277.47934	-408.43042	1119.545	269.09167	-243.26039	1092.337	758.43396	-277.27884	1000.0534	731.95935	-343.73389	1210.8627	1141.9049	-364.80655	905.61438	1358.5629	-226.11642	558.02551	1070.4491	-215.79491	566.11212	1182.1774	-439.12445	130.90845	1154.3278	-414.19717	132.08037	1205.4939
353	1.755	-370.01093	1218.0212	275.853	-411.34204	1122.975	272.14432	-246.99942	1103.2122	754.46869	-284.57004	1003.9084	728.67828	-348.1395	1212.5292	1139.8337	-360.30606	906.25769	1355.9346	-228.61612	556.82629	1065.451	-216.74991	565.34894	1176.7704	-439.66003	129.62109	1154.8794	-414.37241	131.34969	1205.8834
354	1.76	-375.85748	1216.0679	273.91504	-413.54001	1117.3773	274.30975	-247.04858	1108.1102	752.18573	-282.0632	1009.7591	727.24365	-353.3472	1213.6632	1136.9845	-355.31827	907.1778	1352.5566	-231.00659	555.31293	1060.1132	-217.70743	564.33582	1171.0688	-440.05939	128.85188	1155.5972	-414.01495	130.77591	1206.5319
355	1.765	-387.07687	1209.7446	273.20544	-409.96423	1107.1803	274.78003	-244.15222	1112.2183	750.71631	-275.18909	1014.4591	726.87732	-359.03088	1214.7772	1133.3141	-349.93796	908.10175	1348.3119	-233.66249	553.96466	1054.6454	-218.47357	563.48328	1165.1938	-440.24191	128.16617	1156.6444	-413.28162	130.44966	1207.1943
356	1.77	-398.38559	1200.9037	272.9389	-404.60275	1095.8197	273.74677	-240.96642	1115.5128	750.50098	-268.01404	1021.3049	726.7948	-364.67065	1215.4141	1129.6752	-344.46326	908.92578	1344.2201	-236.03915	552.78876	1048.8401	-218.97995	562.5835	1158.9635	-440.35266	127.11861	1157.8512	-412.14853	130.16045	1207.7979
357	1.775	-408.30359	1191.3071	271.99008	-399.2139	1086.1238	271.01315	-239.74249	1117.1187	751.90399	-262.99814	1029.5575	727.85187	-371.01053	1215.6416	1125.8821	-338.95673	909.42407	1339.6489	-238.33318	551.72009	1042.7394	-219.03462	562.09875	1152.9519	-439.85324	126.69179	1159.0448	-410.88739	129.98163	1208.5012
358	1.78	-414.10806	1181.7784	269.49689	-397.72083	1078.2251	269.02408	-242.06149	1119.3665	754.02478	-261.04611	1037.8326	729.62213	-377.90735	1215.402	1122.458	-333.68802	909.76843	1334.991	-241.42902	550.87482	1036.9001	-219.59892	561.29865	1145.7646	-439.4118	125.90974	1160.2882	-409.23459	130.08054	1209.0872
359	1.785	-416.57065	1171.6785	264.5582	-395.87836	1067.9331	266.16028	-248.54326	1124.1957	756.69391	-262.06238	1045.5112	730.97534	-385.3909	1215.0557	1119.6124	-328.64722	909.72906	1330.0878	-244.39864	550.35651	1030.8699	-219.78929	561.07581	1139.0728	-438.51938	125.85151	1162.0588	-407.47626	130.50798	1209.7968
360	1.79	-417.39819	1160.7576	258.68176	-393.91647	1057.7787	265.89932	-257.2886	1132.9459	758.30811	-265.08759	1052.291	731.72662	-392.84619	1214.3174	1117.455	-324.08411	909.48315	1324.9261	-247.2504	549.83136	1024.5969	-219.96857	560.94293	1132.4219	-437.5835	126.14493	1163.4293	-405.53482	131.11124	1210.4116
361	1.795	-418.36407	1147.7278	253.39455	-390.08197	1047.548	264.99316	-268.65619	1142.2728	758.93158	-268.43289	1058.734	732.16687	-400.33859	1213.5677	1115.9113	-319.98758	909.08954	1319.6171	-250.55623	549.74017	1018.7289	-220.04352	561.03442	1125.557	-436.55475	126.66072	1164.6409	-403.4808	131.99338	1210.8757
362	1.8	-419.55136	1133.4037	249.35509	-383.30173	1036.0176	263.35016	-282.79871	1150.7654	758.35925	-271.70566	1064.8044	732.26935	-407.24844	1212.975	1114.8252	-316.30579	908.64093	1314.0731	-253.51247	549.8446	1012.8138	-220.18364	561.25592	1118.8055	-435.55765	127.29202	1165.4799	-401.42261	133.05226	1211.0935
363	1.805	-422.92191	1116.8939	246.89304	-372.66321	1026.1332	260.96561	-299.47452	1157.8717	756.27173	-275.28348	1070.3877	731.81439	-414.27927	1212.6664	1114.2061	-313.04614	908.22284	1308.1826	-256.98709	550.24359	1007.3641	-220.04788	561.59973	1112.0804	-434.36002	127.99649	1166.1594	-399.255	134.30237	1210.9857
364	1.81	-426.03738	1098.5061	245.49048	-361.35901	1016.9218	259.83157	-318.02716	1162.057	752.72919	-279.48752	1075.9962	731.00616	-421.57135	1213.5463	1114.2062	-310.0145	907.95227	1302.1741	-260.6803	550.88483	1002.3961	-219.82616	562.10974	1105.3992	-433.28098	128.90904	1166.7731	-397.0661	135.60768	1210.7557
365	1.815	-426.10349	1080.3859	244.15276	-352.76312	1008.3469	260.38208	-336.70871	1162.8464	748.57062	-284.31833	1081.514	730.0824	-428.30234	1213.7596	1114.4009	-306.91547	907.52234	1296.2107	-264.18912	551.87775	997.82434	-219.65623	562.73737	1099.0082	-431.92062	129.5825	1167.319	-394.9306	136.84401	1210.4978
366	1.82	-425.64426	1064.3649	242.67758	-348.89963	999.75555	261.58624	-353.25943	1160.7299	745.0517	-289.85129	1086.474	728.92554	-434.59558	1213.8406	1114.9272	-303.64581	907.06494	1290.4254	-268.21091	552.8645	994.11725	-219.56232	563.51019	1092.922	-430.98209	130.43106	1167.9175	-392.83688	137.88652	1210.3755
367	1.825	-425.0303	1049.8398	241.7236	-341.96231	993.8869	260.90353	-368.27118	1157.3439	741.79297	-296.39969	1090.1228	728.00946	-440.41171	1213.6077	1115.9435	-300.10129	906.45215	1285.047	-271.55814	553.76306	990.5993	-219.58829	564.35107	1087.4576	-429.4567	130.91151	1169.0156	-390.68759	138.66995	1210.4606
368	1.83	-424.97409	1035.8787	240.66869	-337.75858	987.10095	261.07309	-381.2449	1153.734	739.57361	-303.55276	1092.1583	727.28467	-446.35724	1213.0969	1116.9703	-296.41263	906.03345	1280.2062	-275.26242	554.29578	987.41223	-219.918	565.16754	1082.4731	-428.10461	131.23781	1170.2369	-388.50031	139.4182	1210.8114
369	1.835	-425.10739	1022.0882	239.90489	-335.12689	979.05688	261.85028	-391.78088	1149.6588	737.41675	-310.38065	1092.9279	727.02936	-451.49817	1211.4542	1117.8412	-292.59665	906.0354	1275.5249	-278.43552	554.75934	984.80774	-220.42303	566.0047	1078.312	-426.63275	131.44843	1172.0065	-386.3447	140.04288	1211.7402
370	1.84	-425.6965	1008.1693	239.86325	-334.26578	969.21155	262.81067	-401.22217	1144.745	735.10229	-318.24658	1091.6605	725.862	-456.67398	1209.5006	1118.4625	-288.81042	906.5589	1270.9299	-282.09012	555.05115	982.94598	-220.94847	566.61432	1074.8322	-424.92023	131.41994	1174.1377	-383.95267	140.05743	1212.3981
371	1.845	-425.84692	993.20093	239.87173	-333.24057	958.15912	264.16537	-410.42773	1139.5052	732.71808	-325.94907	1089.6522	724.7757	-461.89017	1207.0642	1118.8452	-285.05954	907.53107	1266.5389	-285.06537	554.89105	980.63354	-221.76125	567.1427	1071.7919	-423.00226	131.2627	1176.5795	-381.77802	140.4118	1213.7323
372	1.85	-427.01358	977.54352	240.77161	-333.5256	945.99078	265.97272	-419.52832	1133.6256	730.43988	-333.76913	1086.548	723.61755	-467.51105	1204.401	1118.9894	-281.49115	908.81506	1262.4587	-287.49655	554.1344	978.90289	-222.57762	567.38953	1069.196	-421.72977	130.88626	1178.8151	-379.50983	140.29628	1215.042
373	1.855	-428.31116	962.0592	242.18114	-333.82709	934.40063	267.80673	-428.62955	1126.8345	728.38696	-340.99271	1082.8677	722.62421	-472.58524	1201.1686	1119.0366	-277.94156	910.23816	1258.8005	-289.98892	553.31763	977.66364	-223.42326	567.39667	1066.8219	-420.40015	130.51935	1181.214	-377.16269	139.76456	1216.2921
374	1.86	-430.0036	946.23718	244.02153	-334.88135	921.78027	270.26419	-438.04523	1120.2938	726.34442	-348.25647	1078.5222	721.9566	-477.57568	1197.61	1118.9493	-274.56	912.05743	1256.0262	-292.26367	552.2312	976.69196	-224.33885	567.15393	1064.7119	-419.15274	129.87222	1183.4225	-375.38547	139.65028	1217.5963
375	1.865	-432.67743	929.94312	246.30872	-336.52872	909.7572	272.49728	-446.34177	1112.3524	724.7392	-354.99753	1074.4131	721.4035	-482.60989	1193.8268	1119.0284	-271.1142	914.00269	1253.5179	-294.50397	551.12561	976.01361	-225.0394	566.64569	1062.9613	-417.79303	129.3575	1185.4443	-373.66415	139.10222	1218.6963
